<svg width="19" height="19" viewBox="0 0 19 19" fill="none" xmlns="http://www.w3.org/2000/svg">
<path d="M9.5 4.61777C8.53524 4.61777 7.59215 4.90358 6.78999 5.43907C5.98782 5.97456 5.36261 6.73566 4.99341 7.62615C4.62422 8.51663 4.52762 9.49649 4.71583 10.4418C4.90405 11.3872 5.36862 12.2555 6.05081 12.937C6.73299 13.6186 7.60215 14.0827 8.54837 14.2708C9.49459 14.4588 10.4754 14.3623 11.3667 13.9934C12.258 13.6246 13.0198 13 13.5558 12.1986C14.0918 11.3971 14.3779 10.4549 14.3779 9.49109C14.3795 8.85067 14.2544 8.21626 14.0098 7.62429C13.7652 7.03233 13.406 6.49447 12.9527 6.04163C12.4994 5.58879 11.9611 5.22989 11.3685 4.98553C10.776 4.74118 10.141 4.6162 9.5 4.61777ZM9.5 12.6647C8.87173 12.6647 8.25757 12.4786 7.73519 12.1298C7.2128 11.7811 6.80565 11.2855 6.56522 10.7056C6.32479 10.1257 6.26189 9.48756 6.38446 8.87195C6.50702 8.25633 6.80957 7.69085 7.25382 7.24701C7.69807 6.80318 8.26408 6.50092 8.88028 6.37846C9.49648 6.25601 10.1352 6.31886 10.7156 6.55906C11.2961 6.79926 11.7922 7.20603 12.1412 7.72793C12.4903 8.24982 12.6766 8.86341 12.6766 9.49109C12.6766 10.3328 12.3419 11.14 11.7462 11.7352C11.1505 12.3303 10.3425 12.6647 9.5 12.6647ZM15.7223 4.4157C15.7223 4.65079 15.6525 4.88059 15.5218 5.07606C15.3911 5.27153 15.2052 5.42387 14.9879 5.51384C14.7705 5.6038 14.5312 5.62734 14.3005 5.58148C14.0697 5.53561 13.8577 5.42241 13.6913 5.25618C13.5249 5.08995 13.4116 4.87816 13.3657 4.64759C13.3198 4.41702 13.3433 4.17803 13.4334 3.96084C13.5234 3.74365 13.6759 3.55801 13.8716 3.42741C14.0672 3.2968 14.2973 3.22709 14.5326 3.22709C14.8481 3.22709 15.1507 3.35232 15.3738 3.57523C15.5969 3.79813 15.7223 4.10046 15.7223 4.4157ZM18.9465 5.60432C18.9824 4.12644 18.4305 2.69459 17.4117 1.62246C16.8832 1.11205 16.2592 0.710761 15.5753 0.441541C14.8914 0.17232 14.1611 0.0404546 13.4261 0.0534876C11.8795 -0.0178292 7.12054 -0.0178292 5.57389 0.0534876C4.0953 0.021501 2.66353 0.572319 1.58829 1.5868C0.569516 2.65893 0.0176298 4.09078 0.0535379 5.56866C-0.017846 7.11386 -0.017846 11.8683 0.0535379 13.4135C0.0176298 14.8914 0.569516 16.3232 1.58829 17.3954C2.66353 18.4098 4.0953 18.9607 5.57389 18.9287C7.14433 19.0238 11.8557 19.0238 13.4261 18.9287C14.9054 18.9646 16.3386 18.4132 17.4117 17.3954C18.4305 16.3232 18.9824 14.8914 18.9465 13.4135C19.0178 11.8683 19.0178 7.11386 18.9465 5.56866V5.60432ZM16.9239 15.1132C16.7624 15.522 16.5185 15.8933 16.2075 16.2041C15.8964 16.5149 15.5247 16.7585 15.1155 16.9199C13.2686 17.293 11.3804 17.4209 9.5 17.3003C7.62351 17.4198 5.73943 17.2919 3.89637 16.9199C3.48717 16.7585 3.11552 16.5149 2.80445 16.2041C2.49337 15.8933 2.24951 15.522 2.08798 15.1132C1.58829 13.8533 1.69537 10.8818 1.69537 9.50297C1.69537 8.12418 1.58829 5.14076 2.08798 3.89271C2.24495 3.47987 2.48707 3.10461 2.79862 2.79131C3.11017 2.47801 3.48417 2.23367 3.89637 2.07413C5.73943 1.70212 7.62351 1.57424 9.5 1.69378C11.3804 1.57319 13.2686 1.70108 15.1155 2.07413C15.5247 2.23551 15.8964 2.47915 16.2075 2.78993C16.5185 3.10071 16.7624 3.47202 16.9239 3.88083C17.4236 5.14076 17.3046 8.11229 17.3046 9.49109C17.3046 10.8699 17.4236 13.8533 16.9239 15.1013V15.1132Z" fill="#868686"/>
</svg>
