<svg width="20" height="18" viewBox="0 0 20 18" fill="none" xmlns="http://www.w3.org/2000/svg">
<path d="M18.0522 0.00181447C17.8115 0.0196702 17.5752 0.0761418 17.3525 0.169064H17.3495C17.1357 0.253814 16.1195 0.681314 14.5745 1.32931L9.03797 3.66106C5.06522 5.33356 1.15997 6.98056 1.15997 6.98056L1.20647 6.96256C1.20647 6.96256 0.937223 7.05106 0.655973 7.24381C0.481825 7.35388 0.332216 7.49864 0.216473 7.66906C0.0784728 7.87156 -0.0325272 8.18131 0.00872283 8.50156C0.0762228 9.04307 0.427223 9.36781 0.679223 9.54706C0.934223 9.72856 1.17722 9.81331 1.17722 9.81331H1.18322L4.84547 11.0471C5.00972 11.5743 5.96147 14.7033 6.19022 15.4241C6.32522 15.8546 6.45647 16.1238 6.62072 16.3293C6.69922 16.4343 6.79397 16.5221 6.90497 16.5926C6.96263 16.6272 7.02469 16.654 7.08947 16.6721L7.05197 16.6631C7.06322 16.6661 7.07222 16.6751 7.08047 16.6781C7.11047 16.6863 7.13072 16.6893 7.16897 16.6953C7.74872 16.8708 8.21447 16.5108 8.21447 16.5108L8.24072 16.4898L10.403 14.5211L14.027 17.3013L14.1095 17.3366C14.8647 17.6681 15.6297 17.4836 16.034 17.1581C16.4412 16.8303 16.5995 16.4111 16.5995 16.4111L16.6257 16.3436L19.4262 1.99681C19.5057 1.64281 19.526 1.31131 19.4382 0.989565C19.3482 0.663705 19.1392 0.383489 18.8525 0.204314C18.6121 0.0580643 18.3332 -0.0124923 18.0522 0.00181447ZM17.9765 1.53931C17.9735 1.58656 17.9825 1.58131 17.9615 1.67206V1.68031L15.1872 15.8778C15.1752 15.8981 15.155 15.9423 15.0995 15.9866C15.041 16.0331 14.9945 16.0623 14.7507 15.9656L10.3182 12.5673L7.64072 15.0078L8.20322 11.4153L15.4452 4.66531C15.7437 4.38781 15.644 4.32931 15.644 4.32931C15.665 3.98881 15.1932 4.22956 15.1932 4.22956L6.06122 9.88682L6.05822 9.87181L1.68122 8.39806V8.39506L1.66997 8.39281L1.69247 8.38381L1.71647 8.37181L1.73972 8.36356C1.73972 8.36356 5.64797 6.71656 9.62072 5.04406C11.6097 4.20631 13.6137 3.36256 15.155 2.71156C16.069 2.32682 16.984 1.94431 17.9 1.56406C17.9615 1.54006 17.9322 1.53931 17.9765 1.53931Z" fill="#868686"/>
</svg>
